<?xml version="1.0" encoding="UTF-8"?>
<svg width="18px" height="18px" viewBox="0 0 18 18" version="1.1" xmlns="http://www.w3.org/2000/svg" xmlns:xlink="http://www.w3.org/1999/xlink">
    <!-- Generator: Sketch 52.1 (67048) - http://www.bohemiancoding.com/sketch -->
    <title>transaction copy 5</title>
    <desc>Created with Sketch.</desc>
    <g id="📱-Mobile---ALCHEMY" stroke="none" stroke-width="1" fill="none" fill-rule="evenodd">
        <g id="Homepage" transform="translate(-315.000000, -825.000000)">
            <g id="bottom-nav" transform="translate(0.000000, 816.000000)">
                <g id="transaction-copy-5" transform="translate(312.000000, 6.000000)">
                    <rect id="Rectangle" x="0" y="0" width="24" height="24"></rect>
                    <g id="Group" transform="translate(3.000000, 3.000000)" fill="#ACB7C0">
                        <path d="M13,4 C13,6.209 11.209,8 9,8 C6.791,8 5,6.209 5,4 C5,1.791 6.791,0 9,0 C11.209,0 13,1.791 13,4" id="Fill-1" opacity="0.5"></path>
                        <path d="M17.5,18 C11.9095,16.6845 6.0905,16.6845 0.5,18 C0.224,18 0,17.776 0,17.5 C0,12.8055 3.8055,9 8.5,9 L9.5,9 C14.1945,9 18,12.8055 18,17.5 C18,17.776 17.776,18 17.5,18" id="Fill-3"></path>
                    </g>
                </g>
            </g>
        </g>
    </g>
</svg>