<?xml version="1.0" encoding="UTF-8"?>
<svg width="203px" height="80px" viewBox="0 0 203 80" version="1.1" xmlns="http://www.w3.org/2000/svg" xmlns:xlink="http://www.w3.org/1999/xlink">
    <!-- Generator: Sketch 52.1 (67048) - http://www.bohemiancoding.com/sketch -->
    <title>Group 3</title>
    <desc>Created with Sketch.</desc>
    <g id="📱-Mobile---ALCHEMY" stroke="none" stroke-width="1" fill="none" fill-rule="evenodd">
        <g id="01.00---Telkom---Blank" transform="translate(-25.000000, -94.000000)" fill="#FCE9EB" fill-rule="nonzero">
            <g id="Banner" transform="translate(0.000000, 80.000000)">
                <g id="Group-4" transform="translate(22.000000, 8.000000)">
                    <g id="Group-3" transform="translate(0.000000, 6.000000)">
                        <path d="M18.7094241,8.65228832 L181.708013,0.693421319 C190.534054,0.262464912 198.038333,7.06802557 198.469289,15.8940665 C198.511,16.7483229 198.484149,17.6045485 198.388993,18.4545127 L193.090737,65.7801306 C192.184239,73.8772498 185.337777,80 177.190073,80 L30.0408679,80 C22.7995772,80 16.4609879,75.1365681 14.5863333,68.1421446 L4.03520519,28.7753937 C1.74756191,20.2400899 6.81229141,11.4663578 15.3475952,9.17871455 C16.4463063,8.88423656 17.5732877,8.70776339 18.7094241,8.65228832 Z" id="Rectangle"></path>
                        <path d="M194.781118,32 C199.645882,38.4813236 203.19292,41.3935109 205.422231,40.7365618 C208.766198,39.7511382 196.679616,50.282213 192.60722,48.8693124 C189.89229,47.9273786 190.616922,42.3042745 194.781118,32 Z" id="Path-22"></path>
                    </g>
                </g>
            </g>
        </g>
    </g>
</svg>