<?xml version="1.0" encoding="UTF-8"?>
<svg width="48px" height="48px" viewBox="0 0 48 48" version="1.1" xmlns="http://www.w3.org/2000/svg" xmlns:xlink="http://www.w3.org/1999/xlink">
    <!-- Generator: Sketch 52.1 (67048) - http://www.bohemiancoding.com/sketch -->
    <title>Flash deal emblem Copy 4</title>
    <desc>Created with Sketch.</desc>
    <defs>
        <linearGradient x1="85.9549907%" y1="18.2690065%" x2="14.8870621%" y2="80.1507366%" id="linearGradient-1">
            <stop stop-color="#F382B0" offset="0%"></stop>
            <stop stop-color="#EE4B60" offset="100%"></stop>
        </linearGradient>
        <path d="M48,24 C48,37.2552 37.2552,48 24,48 C10.7448,48 0,37.2552 0,24 C0,10.7448 10.7448,0 24,0 C37.2552,0 48,10.7448 48,24" id="path-2"></path>
        <polygon id="path-4" points="0 0.479203423 10.1844 0.479203423 10.1844 16.01124 0 16.01124"></polygon>
        <linearGradient x1="85.9549907%" y1="18.2690065%" x2="-29.9370646%" y2="286.877441%" id="linearGradient-6">
            <stop stop-color="#FFFFFF" offset="0%"></stop>
            <stop stop-color="#64B9FF" offset="100%"></stop>
            <stop stop-color="#64B9FF" offset="100%"></stop>
        </linearGradient>
        <polygon id="path-7" points="1.03848 0.204 14.81808 0.204 14.81808 33.59952 1.03848 33.59952"></polygon>
    </defs>
    <g id="📱-Mobile---ALCHEMY" stroke="none" stroke-width="1" fill="none" fill-rule="evenodd">
        <g id="Homepage" transform="translate(-22.000000, -242.000000)">
            <g id="Group-2" transform="translate(8.000000, 242.000000)">
                <g id="Group-28">
                    <g id="Flash-deal-emblem-Copy-4" transform="translate(14.000000, 0.000000)">
                        <mask id="mask-3" fill="white">
                            <use xlink:href="#path-2"></use>
                        </mask>
                        <use id="Fill-1" fill="url(#linearGradient-1)" xlink:href="#path-2"></use>
                        <g id="Group-3" mask="url(#mask-3)">
                            <g transform="translate(10.800000, 12.000000)">
                                <mask id="mask-5" fill="white">
                                    <use xlink:href="#path-4"></use>
                                </mask>
                                <g id="Clip-2" stroke="none" fill="none"></g>
                                <path d="M4.8264,4.97484 C4.164,5.00964 3.6,4.50084 3.5652,3.83964 C3.5304,3.17724 4.0392,2.61324 4.7004,2.57844 C5.3628,2.54364 5.9268,3.05244 5.9616,3.71364 C5.9964,4.37604 5.4888,4.94004 4.8264,4.97484 M3.8844,0.75804 L0.4308,3.64284 C0.1404,3.88524 -0.018,4.25004 0.0012,4.62684 L0.5976,16.01124 L10.1844,15.50964 L9.588,4.12524 C9.5688,3.74724 9.372,3.40164 9.0588,3.19164 L5.3232,0.68244 C4.8804,0.38604 4.2936,0.41604 3.8844,0.75804" id="Fill-1" stroke="none" fill="url(#linearGradient-6)" fill-rule="evenodd" mask="url(#mask-5)"></path>
                            </g>
                        </g>
                        <g id="Group-9" mask="url(#mask-3)">
                            <g transform="translate(14.400000, 7.200000)">
                                <mask id="mask-8" fill="white">
                                    <use xlink:href="#path-7"></use>
                                </mask>
                                <g id="Clip-8" stroke="none" fill="none"></g>
                                <polygon id="Fill-4" stroke="none" fill="#FAAF3F" fill-rule="evenodd" mask="url(#mask-8)" points="14.46888 0.20352 6.80328 18.04392 6.63888 19.39632 2.21688 33.59952 16.75488 19.55592 14.81808 16.16352 13.56288 16.38192"></polygon>
                                <polygon id="Fill-7" stroke="none" fill="#F3DF31" fill-rule="evenodd" mask="url(#mask-8)" points="14.46888 0.20352 1.03848 16.39992 5.12208 19.51632 2.21688 33.59952 14.81808 16.16352 11.22648 14.57712"></polygon>
                            </g>
                        </g>
                        <circle id="Oval-2" fill="url(#linearGradient-6)" mask="url(#mask-3)" cx="34.8" cy="12" r="1.2"></circle>
                        <circle id="Oval-2-Copy-2" fill="#FFFFFF" opacity="0.5" mask="url(#mask-3)" cx="43.8" cy="11.4" r="3"></circle>
                        <circle id="Oval-2-Copy-7" fill="#FFFFFF" opacity="0.5" mask="url(#mask-3)" cx="5.4" cy="9" r="3"></circle>
                        <circle id="Oval-2-Copy-8" fill="#FFFFFF" opacity="0.5" mask="url(#mask-3)" cx="5.4" cy="39" r="3"></circle>
                        <circle id="Oval-2-Copy-9" fill="#FFFFFF" opacity="0.5" mask="url(#mask-3)" cx="18.6" cy="47.4" r="1.8"></circle>
                        <circle id="Oval-2-Copy-10" fill="#FFFFFF" opacity="0.5" mask="url(#mask-3)" cx="41.4" cy="39" r="1.8"></circle>
                        <circle id="Oval-2-Copy-11" fill="#FFFFFF" opacity="0.5" mask="url(#mask-3)" cx="22.2" cy="0.6" r="1.8"></circle>
                        <circle id="Oval-2-Copy-6" fill="url(#linearGradient-6)" mask="url(#mask-3)" cx="6" cy="24" r="1.2"></circle>
                        <circle id="Oval-2-Copy-3" fill="url(#linearGradient-6)" mask="url(#mask-3)" cx="28.8" cy="39.6" r="1.2"></circle>
                        <circle id="Oval-2-Copy" fill="url(#linearGradient-6)" mask="url(#mask-3)" cx="42.6" cy="21" r="1"></circle>
                        <circle id="Oval-2-Copy-4" fill="url(#linearGradient-6)" mask="url(#mask-3)" cx="21" cy="9" r="1"></circle>
                        <circle id="Oval-2-Copy-5" fill="url(#linearGradient-6)" mask="url(#mask-3)" cx="12.6" cy="34.2" r="1"></circle>
                        <path d="M32.3791649,23.485943 C31.7599649,23.721143 31.0663649,23.409143 30.8323649,22.788743 C30.5971649,22.169543 30.9091649,21.475943 31.5283649,21.241943 C32.1487649,21.006743 32.8411649,21.318743 33.0763649,21.939143 C33.3103649,22.558343 32.9983649,23.250743 32.3791649,23.485943 M30.1963649,19.757543 L27.7867649,23.557943 C27.5839649,23.877143 27.5443649,24.271943 27.6775649,24.625943 L31.7179649,35.285543 L40.6939649,31.884743 L36.6547649,21.223943 C36.5215649,20.871143 36.2287649,20.601143 35.8663649,20.496743 L31.5427649,19.247543 C31.0303649,19.098743 30.4819649,19.307543 30.1963649,19.757543" id="Fill-10" fill="url(#linearGradient-6)" mask="url(#mask-3)"></path>
                    </g>
                </g>
            </g>
        </g>
    </g>
</svg>