<?xml version="1.0" encoding="UTF-8"?>
<svg width="14px" height="14px" viewBox="0 0 14 14" version="1.1" xmlns="http://www.w3.org/2000/svg" xmlns:xlink="http://www.w3.org/1999/xlink">
    <!-- Generator: Sketch 52.1 (67048) - http://www.bohemiancoding.com/sketch -->
    <title>baseline-check_circle-24px</title>
    <desc>Created with Sketch.</desc>
    <g id="📱-Mobile---ALCHEMY" stroke="none" stroke-width="1" fill="none" fill-rule="evenodd">
        <g id="01.06---Telkom---Promo-Copy" transform="translate(-249.000000, -575.000000)">
            <g id="Promo" transform="translate(0.000000, 422.000000)">
                <g id="Promo-01" transform="translate(16.000000, 74.000000)">
                    <g id="Kode" transform="translate(16.000000, 68.000000)">
                        <g id="baseline-check_circle-24px" transform="translate(216.000000, 10.000000)">
                            <polygon id="Path" points="0 0 16 0 16 16 0 16"></polygon>
                            <path d="M8,1.33333333 C4.32,1.33333333 1.33333333,4.32 1.33333333,8 C1.33333333,11.68 4.32,14.6666667 8,14.6666667 C11.68,14.6666667 14.6666667,11.68 14.6666667,8 C14.6666667,4.32 11.68,1.33333333 8,1.33333333 Z M6.31322192,10.9673308 L4.59823595,9.1914118 C4.34193858,8.92600825 4.34561984,8.50417108 4.60651004,8.24328088 L4.60651004,8.24328088 C4.85954843,7.99024249 5.26980473,7.99024249 5.52284313,8.24328088 C5.52673717,8.24717492 5.5305814,8.25111844 5.5343749,8.25511049 L6.66666667,9.44666667 L10.2549971,5.85833628 C10.5145741,5.5987592 10.9354317,5.5987592 11.1950088,5.85833628 C11.1955624,5.85888988 11.196115,5.85944445 11.1966667,5.86 L11.1966667,5.86 C11.4565087,6.1216849 11.4557622,6.54423785 11.1949971,6.80500294 L7.02644511,10.9735549 C6.83118297,11.168817 6.51460048,11.168817 6.31933833,10.9735549 C6.31728146,10.971498 6.31524258,10.9694232 6.31322192,10.9673308 Z" id="Shape" fill="#389C73" fill-rule="nonzero"></path>
                        </g>
                    </g>
                </g>
            </g>
        </g>
    </g>
</svg>