<?xml version="1.0" encoding="UTF-8"?>
<svg width="20px" height="20px" viewBox="0 0 20 20" version="1.1" xmlns="http://www.w3.org/2000/svg" xmlns:xlink="http://www.w3.org/1999/xlink">
    <!-- Generator: Sketch 52.1 (67048) - http://www.bohemiancoding.com/sketch -->
    <title>ic_voucherfill</title>
    <desc>Created with Sketch.</desc>
    <g id="📱-Mobile---ALCHEMY" stroke="none" stroke-width="1" fill="none" fill-rule="evenodd">
        <g id="01.00---Telkom---Blank" transform="translate(-18.000000, -602.000000)">
            <g id="Bottom-Sheets/Bottom-Sheets---Draggable" transform="translate(0.000000, 578.000000)">
                <g id="ic_voucherfill" transform="translate(16.000000, 22.000000)">
                    <polygon id="Fill-1" fill="#E9E8E7" opacity="0" points="0 24 24 24 24 0 0 0"></polygon>
                    <path d="M11.14305,16.64305 C11.01505,16.64305 10.88705,16.59405 10.78955,16.49655 L9.69455,15.40105 C9.49905,15.20555 9.49905,14.88905 9.69455,14.69405 C9.88955,14.49855 10.20605,14.49855 10.40155,14.69405 L11.49655,15.78955 C11.69205,15.98505 11.69205,16.30155 11.49655,16.49655 C11.39905,16.59405 11.27105,16.64305 11.14305,16.64305 Z M8.95205,14.45205 C8.82405,14.45205 8.69605,14.40355 8.59855,14.30555 L7.50355,13.21055 C7.30805,13.01505 7.30805,12.69855 7.50355,12.50355 C7.69855,12.30805 8.01505,12.30805 8.21055,12.50355 L9.30555,13.59855 C9.50105,13.79405 9.50105,14.11055 9.30555,14.30555 C9.20805,14.40355 9.08005,14.45205 8.95205,14.45205 Z M11.88455,17.59205 C11.68955,17.39705 11.68955,17.08055 11.88455,16.88505 C12.08005,16.68955 12.39655,16.68955 12.59155,16.88505 L13.69055,17.98355 L21.85355,9.82005 C21.94705,9.72655 22.00005,9.59905 22.00005,9.46655 C22.00005,9.33405 21.94705,9.20655 21.85355,9.11305 L19.63655,6.89655 C19.44855,6.70855 19.11655,6.70955 18.92955,6.89655 C18.44305,7.38405 17.59205,7.38455 17.10355,6.89655 C16.85955,6.65255 16.72505,6.32855 16.72505,5.98355 C16.72505,5.63855 16.85955,5.31405 17.10355,5.07005 C17.19705,4.97655 17.25005,4.84905 17.25005,4.71655 C17.25005,4.58405 17.19705,4.45655 17.10355,4.36305 L14.88655,2.14655 C14.69155,1.95105 14.37505,1.95105 14.17955,2.14655 L6.01655,10.30955 L7.11455,11.40805 C7.31005,11.60305 7.31005,11.92005 7.11455,12.11505 C7.01705,12.21255 6.88905,12.26155 6.76105,12.26155 C6.63305,12.26155 6.50555,12.21255 6.40755,12.11505 L5.30955,11.01655 L2.14655,14.18005 C2.05255,14.27355 2.00005,14.40105 2.00005,14.53355 C2.00005,14.66605 2.05255,14.79305 2.14655,14.88705 L4.36305,17.10355 C4.55105,17.29105 4.88305,17.29055 5.07005,17.10355 C5.55755,16.61605 6.40805,16.61555 6.89655,17.10355 C7.14055,17.34755 7.27505,17.67155 7.27505,18.01655 C7.27505,18.36155 7.14055,18.68605 6.89655,18.93005 C6.80255,19.02355 6.75005,19.15105 6.75005,19.28355 C6.75005,19.41605 6.80255,19.54305 6.89655,19.63705 L9.11305,21.85355 C9.21105,21.95105 9.33905,22.00005 9.46655,22.00005 C9.59455,22.00005 9.72255,21.95105 9.82005,21.85355 L12.98355,18.69055 L11.88455,17.59205 Z" id="Fill-2" fill="#364058"></path>
                </g>
            </g>
        </g>
    </g>
</svg>