<?xml version="1.0" encoding="UTF-8"?>
<svg width="40px" height="40px" viewBox="0 0 40 40" version="1.1" xmlns="http://www.w3.org/2000/svg" xmlns:xlink="http://www.w3.org/1999/xlink">
    <!-- Generator: Sketch 52.1 (67048) - http://www.bohemiancoding.com/sketch -->
    <title>Group 20</title>
    <desc>Created with Sketch.</desc>
    <defs>
        <linearGradient x1="85.9549907%" y1="18.2690065%" x2="13.9225746%" y2="80.990555%" id="linearGradient-1">
            <stop stop-color="#EE5191" offset="0%"></stop>
            <stop stop-color="#EE4B60" offset="100%"></stop>
        </linearGradient>
    </defs>
    <g id="📱-Mobile---ALCHEMY" stroke="none" stroke-width="1" fill="none" fill-rule="evenodd">
        <g id="Homepage" transform="translate(-200.000000, -702.000000)">
            <g id="VP-Copy-7" transform="translate(27.000000, 618.000000)">
                <g id="Group-20" transform="translate(173.000000, 84.000000)">
                    <rect id="Rectangle-2-Copy-7" fill="url(#linearGradient-1)" x="0" y="0" width="40" height="40" rx="16"></rect>
                    <g id="Group-2" transform="translate(8.000000, 8.000000)">
                        <polygon id="Fill-1" fill="#E6E6E6" opacity="0" points="0 24 24 24 24 0 0 0"></polygon>
                        <g id="Group" fill="#FFFFFF">
                            <path d="M17.58605,9.8079 L16.87905,10.5149 L15.74805,9.3839 L16.45505,8.6769 L15.32355,7.5454 L14.61655,8.2524 L13.48505,7.1209 L14.19205,6.4139 L13.06055,5.2829 L12.35355,5.9899 L11.64655,5.2829 L0.68605,16.2429 L2.45405,18.0104 C3.43055,17.0344 5.01305,17.0344 5.98955,18.0104 C6.96605,18.9869 6.96605,20.5699 5.98955,21.5459 L7.75755,23.3134 L18.71755,12.3534 L18.01055,11.6464 L18.71755,10.9394 L17.58605,9.8079 Z" id="Fill-14"></path>
                            <path d="M15.3235,7.5454 L16.455,8.6769 L17.586,9.8079 L18.7175,10.9394 L19.4245,11.6464 L23.3135,7.7574 L21.546,5.9899 C20.5695,6.9659 18.987,6.9659 18.0105,5.9899 C17.034,5.0134 17.034,3.4304 18.0105,2.4539 L16.2425,0.6864 L12.3535,4.5754 L13.0605,5.2829 L14.192,6.4139 L15.3235,7.5454 Z" id="Fill-16" opacity="0.5"></path>
                        </g>
                    </g>
                </g>
            </g>
        </g>
    </g>
</svg>