<?xml version="1.0" encoding="UTF-8"?>
<svg width="40px" height="40px" viewBox="0 0 40 40" version="1.1" xmlns="http://www.w3.org/2000/svg" xmlns:xlink="http://www.w3.org/1999/xlink">
    <!-- Generator: Sketch 52.1 (67048) - http://www.bohemiancoding.com/sketch -->
    <title>Group 16</title>
    <desc>Created with Sketch.</desc>
    <defs>
        <linearGradient x1="9.96110477%" y1="89.390006%" x2="87.2106176%" y2="12.3401376%" id="linearGradient-1">
            <stop stop-color="#A7E0F3" offset="0%"></stop>
            <stop stop-color="#4589DC" offset="100%"></stop>
        </linearGradient>
    </defs>
    <g id="📱-Mobile---ALCHEMY" stroke="none" stroke-width="1" fill="none" fill-rule="evenodd">
        <g id="Homepage" transform="translate(-282.000000, -618.000000)">
            <g id="Group-16" transform="translate(282.000000, 618.000000)">
                <g id="ic_Dope" fill="url(#linearGradient-1)">
                    <rect id="Rectangle-2-Copy-17" transform="translate(20.000000, 20.000000) rotate(-180.000000) translate(-20.000000, -20.000000) " x="0" y="0" width="40" height="40" rx="16"></rect>
                </g>
                <g id="Group" transform="translate(8.000000, 8.000000)">
                    <polygon id="Path" fill="#E5E5E4" opacity="0" points="0 24 24 24 24 0 0 0"></polygon>
                    <path d="M18,10 L21,16 L21,19 C21,19.552 20.552,20 20,20 L4,20 C3.448,20 3,19.552 3,19 L3,16 L6,10" id="Stroke-19" fill-opacity="0.5" fill="#FFFFFF"></path>
                    <path d="M12,13.8335 C10.822,13.8335 9.8665,12.9975 9.8665,11.967 C9.8665,10.9355 10.822,10.1 12,10.1 C13.178,10.1 14.1335,10.9355 14.1335,11.967 C14.1335,12.9975 13.178,13.8335 12,13.8335 M12,8.5 C9.349,8.5 7.2,10.291 7.2,12.5 C7.2,14.709 9.349,16.5 12,16.5 C14.651,16.5 16.8,14.709 16.8,12.5 C16.8,10.291 14.651,8.5 12,8.5" id="Fill-21" fill="#FFFFFF"></path>
                    <path d="M3.8218,10.9585 L5.2303,10.8425 C6.4238,10.7435 7.3338,9.926 7.3418,8.9455 L7.3418,8.926 C7.3448,8.5675 7.4698,8.2245 7.6913,7.9305 L1.0723,8.593 L1.2893,9.442 C1.5348,10.403 2.6273,11.057 3.8218,10.9585" id="Fill-23" fill="#FFFFFF"></path>
                    <path d="M16.3086,7.93065 C16.5301,8.22465 16.6551,8.56715 16.6581,8.92565 L16.6581,8.94515 C16.6661,9.92565 17.5761,10.74365 18.7696,10.84215 L20.1781,10.95865 C21.3726,11.05715 22.4651,10.40265 22.7111,9.44165 L22.9276,8.59265 L16.3086,7.93065 Z" id="Fill-25" fill="#FFFFFF"></path>
                    <path d="M21.9956,6.53905 C19.0736,4.87305 15.6811,4.03255 12.2791,4.00105 C12.1861,3.99955 12.0931,4.00055 12.0001,4.00005 C11.9066,4.00055 11.8141,3.99955 11.7206,4.00105 C8.3186,4.03255 4.9261,4.87305 2.0046,6.53905 C1.2331,6.97905 0.8576,7.75305 1.0496,8.50555 L1.2891,9.44205 C1.5346,10.40305 2.6276,11.05705 3.8216,10.95855 L5.2311,10.84205 C6.4236,10.74355 7.3341,9.92555 7.3416,8.94505 L7.3416,8.92555 C7.3471,8.20605 7.8451,7.54955 8.6311,7.22505 C8.6311,7.22505 10.0001,6.60855 12.0001,6.60855 C14.0001,6.60855 15.3691,7.22505 15.3691,7.22505 C16.1546,7.54955 16.6526,8.20605 16.6581,8.92555 L16.6581,8.94505 C16.6661,9.92555 17.5761,10.74355 18.7691,10.84205 L20.1781,10.95855 C21.3726,11.05705 22.4651,10.40305 22.7111,9.44205 L22.9501,8.50555 C23.1426,7.75305 22.7671,6.97905 21.9956,6.53905 Z" id="Stroke-27" fill-opacity="0.5" fill="#FFFFFF"></path>
                </g>
            </g>
        </g>
    </g>
</svg>