<?xml version="1.0" encoding="UTF-8"?>
<svg width="22px" height="14px" viewBox="0 0 22 14" version="1.1" xmlns="http://www.w3.org/2000/svg" xmlns:xlink="http://www.w3.org/1999/xlink">
    <!-- Generator: Sketch 52.1 (67048) - http://www.bohemiancoding.com/sketch -->
    <title>transaction copy 3</title>
    <desc>Created with Sketch.</desc>
    <defs>
        <polygon id="path-1" points="0 0 14.49995 0 14.49995 7.9999 0 7.9999"></polygon>
    </defs>
    <g id="📱-Mobile---ALCHEMY" stroke="none" stroke-width="1" fill="none" fill-rule="evenodd">
        <g id="Homepage" transform="translate(-241.000000, -827.000000)">
            <g id="bottom-nav" transform="translate(0.000000, 816.000000)">
                <g id="Group-22" transform="translate(229.000000, 6.000000)">
                    <g id="transaction-copy-3" transform="translate(11.000000, 0.000000)">
                        <rect id="Rectangle" x="0" y="0" width="24" height="24"></rect>
                        <g id="Group" transform="translate(1.000000, 5.500000)">
                            <g id="Group-3">
                                <mask id="mask-2" fill="white">
                                    <use xlink:href="#path-1"></use>
                                </mask>
                                <g id="Clip-2"></g>
                                <path d="M11.49995,2.4999 L5.49995,2.4999 L5.49995,-0.0001 L-5e-05,3.9999 L5.49995,7.9999 L5.49995,5.4999 L14.49995,5.4999 C14.49995,3.8429 13.15695,2.4999 11.49995,2.4999" id="Fill-1" fill="#ACB7C0" mask="url(#mask-2)"></path>
                            </g>
                            <path d="M22,9 L16.5,5 L16.5,7.5 L7.5,7.5 C7.5,9.157 8.843,10.5 10.5,10.5 L16.5,10.5 L16.5,13 L22,9 Z" id="Fill-4" fill="#D5DBDF" opacity="0.5"></path>
                        </g>
                    </g>
                </g>
            </g>
        </g>
    </g>
</svg>