<?xml version="1.0" encoding="UTF-8"?>
<svg width="18px" height="18px" viewBox="0 0 18 18" version="1.1" xmlns="http://www.w3.org/2000/svg" xmlns:xlink="http://www.w3.org/1999/xlink">
    <!-- Generator: Sketch 52.1 (67048) - http://www.bohemiancoding.com/sketch -->
    <title>transaction copy 10</title>
    <desc>Created with Sketch.</desc>
    <defs>
        <linearGradient x1="50.0002683%" y1="105.544094%" x2="50.0002683%" y2="49.9816435%" id="linearGradient-1">
            <stop stop-color="#FDF2F7" offset="0%"></stop>
            <stop stop-color="#FFFFFF" offset="100%"></stop>
        </linearGradient>
        <linearGradient x1="50.0000968%" y1="105.54804%" x2="50.0000968%" y2="49.9832948%" id="linearGradient-2">
            <stop stop-color="#FDF2F7" offset="0%"></stop>
            <stop stop-color="#FFFFFF" offset="100%"></stop>
        </linearGradient>
    </defs>
    <g id="📱-Mobile---ALCHEMY" stroke="none" stroke-width="1" fill="none" fill-rule="evenodd">
        <g id="Homepage" transform="translate(-27.000000, -825.000000)">
            <g id="bottom-nav" transform="translate(0.000000, 816.000000)">
                <g id="transaction-copy-10" transform="translate(24.000000, 6.000000)">
                    <rect id="Rectangle" x="0" y="0" width="24" height="24"></rect>
                    <path d="M20,21 L4,21 C3.4475,21 3,20.5525 3,20 L3,4 C3,3.4475 3.4475,3 4,3 L20,3 C20.5525,3 21,3.4475 21,4 L21,20 C21,20.5525 20.5525,21 20,21" id="Fill-1" fill="#D71149"></path>
                    <g id="Group-76" transform="translate(6.500000, 7.500000)" fill-rule="nonzero">
                        <path d="M5.73331143,3.90631313 C6.06727143,3.48068318 6.26998571,2.89204907 6.21652571,2.19675614 C6.15429714,1.40097988 5.76155,0.885637803 5.17433857,0.567289003 C4.55936,0.236014763 3.75750714,0.228068011 2.82374857,0.228068011 L0.229571429,0.228068011 C0.103982857,0.228068011 0.00272,0.331375787 0.00272,0.458811051 L0.00272,8.22269201 C0.00272,8.34916983 0.102615714,8.45161591 0.22679,8.45276484 L3.00105286,8.45276484 C3.50515143,8.45276484 3.97337429,8.45846161 4.39261571,8.39086635 C4.97558429,8.29464363 5.45432,8.08175684 5.80327143,7.74469009 C5.88992,7.67034487 6.97788286,6.6933731 6.49829857,5.03953911 C6.49829857,5.03953911 6.32471857,4.41342123 5.73331143,3.90631313 Z M2.25581857,1.87294993 L2.25836429,1.87294993 L3.64752286,1.87294993 L3.64752286,1.87424247 C4.15232857,1.87424247 4.45988857,2.27215454 4.45988857,2.6951994 C4.45988857,3.11805278 4.18740286,3.51687441 3.64752286,3.51687441 L3.64752286,3.51835844 L2.25775143,3.51797547 C2.13235143,3.51797547 2.03071143,3.41495492 2.03071143,3.2876154 L2.02778857,2.09325687 C2.03330429,1.97060881 2.13395429,1.87294993 2.25581857,1.87294993 Z M3.64752286,6.80783505 C3.64544857,6.80783505 2.25421571,6.80783505 2.25421571,6.80783505 C2.12900429,6.80783505 2.02755286,6.70510174 2.02755286,6.57713988 L2.02774143,5.38948343 C2.02774143,5.27559595 2.12165,5.16204356 2.25459286,5.16233079 C2.25459286,5.16233079 3.64540143,5.16233079 3.64747571,5.16233079 C4.17109143,5.16233079 4.45739,5.53056222 4.45739,5.9696442 C4.45748429,6.4085347 4.17118571,6.80783505 3.64752286,6.80783505 Z" id="Shape" fill="url(#linearGradient-1)"></path>
                        <path d="M11.75864,6.80783505 L8.91234286,6.80783505 L8.91177714,0.443731371 C8.90432857,0.323381163 8.80650714,0.228546731 8.68652857,0.228068011 L7.11299429,0.228068011 C6.99268571,0.228546731 6.89514714,0.323429035 6.88769857,0.443731371 L6.88949,8.23805892 C6.89693857,8.35735595 6.99466571,8.45228612 7.11455,8.45262123 L11.5410286,8.45262123 C11.6536529,8.44783403 11.7456757,8.35960593 11.7564714,8.24696311 C11.7569429,8.23130897 11.7578386,8.21508036 11.75864,8.19875601 L11.75864,8.19803793 C11.7611857,8.14140535 11.75864,6.80783505 11.75864,6.80783505 Z" id="Shape" fill="url(#linearGradient-2)"></path>
                    </g>
                </g>
            </g>
        </g>
    </g>
</svg>