<?xml version="1.0" encoding="UTF-8"?>
<svg width="18px" height="16px" viewBox="0 0 18 16" version="1.1" xmlns="http://www.w3.org/2000/svg" xmlns:xlink="http://www.w3.org/1999/xlink">
    <!-- Generator: Sketch 52.1 (67048) - http://www.bohemiancoding.com/sketch -->
    <title>Group 31 Copy 38</title>
    <desc>Created with Sketch.</desc>
    <g id="📱-Mobile---ALCHEMY" stroke="none" stroke-width="1" fill="none" fill-rule="evenodd">
        <g id="Homepage" transform="translate(-171.000000, -826.000000)">
            <g id="bottom-nav" transform="translate(0.000000, 816.000000)">
                <g id="Group-23" transform="translate(157.000000, 6.000000)">
                    <g id="Group-31-Copy-38" transform="translate(11.000000, 0.000000)">
                        <g id="Group-18-Copy-2" fill="#FFFFFF" opacity="0">
                            <rect id="Rectangle-4" x="0" y="0" width="24" height="24"></rect>
                        </g>
                        <g id="Group" transform="translate(3.000000, 4.500000)" fill="#ACB7C0">
                            <path d="M2.5,1.4016 L0,5.4016 L4.527,7.6256 C5.59,8.1111 6.7245,8.3611 7.8695,8.3611 L10.4255,8.3611 C11.644,8.3611 12.8505,8.0781 13.9705,7.5296 L18,5.4016 L15.5,1.4016 L13.4365,2.5571 C13.209,2.6871 12.9585,2.7546 12.7045,2.7546 L5.2955,2.7546 C5.0415,2.7546 4.791,2.6871 4.5635,2.5571 L2.5,1.4016 Z" id="Fill-1"></path>
                            <path d="M0.5,7.4016 L9,14.9016 L17.5,7.4266 L14.0675,9.2836 C12.885,9.9071 11.5985,10.2296 10.296,10.2296 L7.9835,10.2296 C6.765,10.2296 5.5585,9.9471 4.4385,9.3986 L0.5,7.4016 Z" id="Fill-3" opacity="0.5"></path>
                            <path d="M2.5,1.4016 L5.495,0.1191 C5.6785,0.0401 5.873,0.0001 6.0695,0.0001 L12.0215,0.0001 C12.2175,0.0001 12.4125,0.0401 12.596,0.1191 L15.591,1.4016 L13.482,2.6061 C13.2545,2.7356 13.004,2.8031 12.75,2.8031 L5.341,2.8031 C5.087,2.8031 4.8365,2.7356 4.609,2.6061 L2.5,1.4016 Z" id="Fill-5" opacity="0.5"></path>
                        </g>
                    </g>
                </g>
            </g>
        </g>
    </g>
</svg>