<?xml version="1.0" encoding="UTF-8"?>
<svg width="22px" height="16px" viewBox="0 0 22 16" version="1.1" xmlns="http://www.w3.org/2000/svg" xmlns:xlink="http://www.w3.org/1999/xlink">
    <!-- Generator: Sketch 52.1 (67048) - http://www.bohemiancoding.com/sketch -->
    <title>Group 31 Copy 39</title>
    <desc>Created with Sketch.</desc>
    <defs>
        <polygon id="path-1" points="0 0.131564257 22 0.131564257 22 10.2870612 0 10.2870612"></polygon>
        <polygon id="path-3" points="0.15695 0.4622 12.85245 0.4622 12.85245 6.5 0.15695 6.5"></polygon>
    </defs>
    <g id="📱-Mobile---ALCHEMY" stroke="none" stroke-width="1" fill="none" fill-rule="evenodd">
        <g id="Homepage" transform="translate(-97.000000, -826.000000)">
            <g id="bottom-nav" transform="translate(0.000000, 816.000000)">
                <g id="Group-31-Copy-39" transform="translate(96.000000, 6.000000)">
                    <g id="Group-18-Copy-2" fill="#FFFFFF" opacity="0">
                        <rect id="Rectangle-4" x="0" y="0" width="24" height="24"></rect>
                    </g>
                    <g id="Group" transform="translate(1.000000, 4.000000)">
                        <g id="Group-5" transform="translate(0.000000, 1.540000)">
                            <mask id="mask-2" fill="white">
                                <use xlink:href="#path-1"></use>
                            </mask>
                            <g id="Clip-4"></g>
                            <path d="M11.8402,7.8838 C5.7137,9.8088 1.4627,9.4323 1.1122,8.3158 C0.8647,7.5283 2.4247,5.9348 5.5092,4.3883 C5.5562,3.8798 5.9792,3.4798 6.5002,3.4798 C6.7147,3.4798 6.9122,3.5488 7.0752,3.6643 C8.0042,3.2703 9.0327,2.8883 10.1592,2.5343 C16.2857,0.6093 20.5372,0.9853 20.8882,2.1023 C21.2387,3.2193 17.9667,5.9588 11.8402,7.8838 M21.9277,1.7758 C21.2292,-0.4482 15.9537,-0.1867 10.9557,1.2018 C10.9817,1.2908 11.0002,1.3828 11.0002,1.4798 C11.0002,2.0323 10.5522,2.4798 10.0002,2.4798 C9.5567,2.4798 9.1847,2.1893 9.0537,1.7898 C8.7902,1.8793 8.5277,1.9723 8.2667,2.0678 C8.4042,2.1573 8.5002,2.3043 8.5002,2.4798 C8.5002,2.7563 8.2762,2.9798 8.0002,2.9798 C7.7237,2.9798 7.5002,2.7563 7.5002,2.4798 C7.5002,2.4343 7.5147,2.3928 7.5262,2.3503 C3.1367,4.0818 -0.5678,6.6053 0.0722,8.6428 C0.8232,11.0323 6.8582,10.5528 12.1557,8.8883 C17.4532,7.2238 22.6787,4.1653 21.9277,1.7758" id="Fill-3" fill="#D5DBDF" opacity="0.5" mask="url(#mask-2)"></path>
                        </g>
                        <g id="Group-8" transform="translate(5.500000, 8.540000)">
                            <mask id="mask-4" fill="white">
                                <use xlink:href="#path-3"></use>
                            </mask>
                            <g id="Clip-7"></g>
                            <path d="M6.59995,3.0592 C4.43595,3.7032 2.15245,4.1497 0.15695,4.2912 C1.51845,5.6557 3.40045,6.5002 5.47995,6.5002 C9.12545,6.5002 12.16395,3.9052 12.85245,0.4622 C11.07245,1.4772 8.84145,2.3922 6.59995,3.0592" id="Fill-6" fill="#D5DBDF" mask="url(#mask-4)"></path>
                        </g>
                        <path d="M10.98,0 C6.827,0 3.46,3.367 3.46,7.52 C3.46,9.1225 3.965,10.605 4.8195,11.825 C6.636,11.778 9.02,11.4175 11.7995,10.59 C14.6855,9.731 16.939,8.6505 18.4925,7.6645 C18.494,7.6045 18.5,7.58 18.5,7.52 C18.5,3.367 15.133,0 10.98,0" id="Fill-9" fill="#ACB7C0"></path>
                    </g>
                </g>
            </g>
        </g>
    </g>
</svg>