<?xml version="1.0" encoding="UTF-8"?>
<svg width="48px" height="48px" viewBox="0 0 48 48" version="1.1" xmlns="http://www.w3.org/2000/svg" xmlns:xlink="http://www.w3.org/1999/xlink">
    <!-- Generator: Sketch 52.1 (67048) - http://www.bohemiancoding.com/sketch -->
    <title>Flash deal emblem Copy 6</title>
    <desc>Created with Sketch.</desc>
    <defs>
        <linearGradient x1="18.9915455%" y1="84.9686186%" x2="88.6765864%" y2="18.375522%" id="linearGradient-1">
            <stop stop-color="#F27C97" offset="0%"></stop>
            <stop stop-color="#F4CA9C" offset="100%"></stop>
        </linearGradient>
        <path d="M24,48 C10.7448,48 0,37.2552 0,24 C0,10.7448 10.7448,0 24,0 C37.2552,0 48,10.7448 48,24 C48,37.2552 37.2552,48 24,48 Z" id="path-2"></path>
        <linearGradient x1="50%" y1="0%" x2="0%" y2="84.4639966%" id="linearGradient-4">
            <stop stop-color="#E8BD84" offset="0%"></stop>
            <stop stop-color="#C58A51" offset="100%"></stop>
        </linearGradient>
        <linearGradient x1="17.1970825%" y1="2.72785267e-14%" x2="82.8948361%" y2="100%" id="linearGradient-5">
            <stop stop-color="#F7DBB1" offset="0%"></stop>
            <stop stop-color="#DEA566" offset="100%"></stop>
        </linearGradient>
    </defs>
    <g id="📱-Mobile---ALCHEMY" stroke="none" stroke-width="1" fill="none" fill-rule="evenodd">
        <g id="Homepage" transform="translate(-292.000000, -242.000000)">
            <g id="Group-2" transform="translate(8.000000, 242.000000)">
                <g id="Group-31" transform="translate(269.000000, 0.000000)">
                    <g id="Flash-deal-emblem-Copy-6" transform="translate(15.000000, 0.000000)">
                        <mask id="mask-3" fill="white">
                            <use xlink:href="#path-2"></use>
                        </mask>
                        <use id="Fill-1" fill="url(#linearGradient-1)" xlink:href="#path-2"></use>
                        <g id="Group-32" mask="url(#mask-3)">
                            <g transform="translate(32.466788, 40.632374) scale(-1, 1) rotate(-20.000000) translate(-32.466788, -40.632374) translate(18.666788, 29.232374)">
                                <path d="M17.7528,21.912 L2.36695509,19.3328925 C1.05971228,19.1137521 0.177630946,17.8763741 0.396771284,16.5691313 C0.396777083,16.5690967 0.396782884,16.5690621 0.396788685,16.5690275 L3.1752,0 L20.9268,2.976 L17.7528,21.912 Z" id="Fill-7" fill="url(#linearGradient-4)"></path>
                                <path d="M22.4867538,22.7055257 L7.10091754,20.1263662 C6.44729614,20.0167961 6.00625547,19.3981071 6.11582564,18.7444857 C6.11582854,18.7444684 6.11583144,18.7444511 6.11583434,18.7444338 L8.89423261,2.17540406 C9.0038289,1.52180263 9.62251252,1.0807914 10.2761175,1.19036623 L25.6607502,3.76954671 C26.3143571,3.87912186 26.7553889,4.49779402 26.6458326,5.15140406 L23.8686343,21.7204338 C23.7590758,22.3740571 23.1403946,22.8151088 22.4867713,22.7055502 C22.4867643,22.7055491 22.4867572,22.7055479 22.4867502,22.7055467 Z" id="Fill-9" fill="url(#linearGradient-5)"></path>
                            </g>
                        </g>
                        <path d="M28.2560343,5.72538714 C27.8237913,5.28386214 27.1228288,5.28386214 26.6904712,5.72538714 L26.5635027,5.85510588 L26.4366488,5.72538714 C26.0042912,5.28386214 25.3033287,5.28386214 24.8710857,5.72538714 L24.8270821,5.77030741 C24.3947245,6.21183241 24.3947245,6.92769192 24.8270821,7.36921692 L24.9540507,7.49882107 L26.4273668,9.00365011 C26.502654,9.0804271 26.6244659,9.0804271 26.6996386,9.00365011 L28.1730693,7.49882107 L28.3000378,7.36921692 C28.7323954,6.92769192 28.7323954,6.21183241 28.3000378,5.77030741 L28.2560343,5.72538714 Z" id="Fill-1-Copy" fill="#FFFFFF" opacity="0.5" mask="url(#mask-3)" transform="translate(26.563560, 7.227738) rotate(-20.000000) translate(-26.563560, -7.227738) "></path>
                        <path d="M11.5171423,11.3058935 C10.856351,10.6309123 9.78475487,10.6309123 9.12378838,11.3058935 L8.92968532,11.504201 L8.73575743,11.3058935 C8.07479094,10.6309123 7.00319486,10.6309123 6.34240355,11.3058935 L6.27513318,11.3745653 C5.61416669,12.0495465 5.61416669,13.1439164 6.27513318,13.8188976 L6.46923624,14.0170298 L8.72156759,16.3175366 C8.836663,16.4349094 9.02288282,16.4349094 9.13780304,16.3175366 L11.3903096,14.0170298 L11.5844126,13.8188976 C12.2453791,13.1439164 12.2453791,12.0495465 11.5844126,11.3745653 L11.5171423,11.3058935 Z" id="Fill-1-Copy-2" fill="#FFFFFF" opacity="0.5" mask="url(#mask-3)" transform="translate(8.929773, 13.602612) rotate(-30.000000) translate(-8.929773, -13.602612) "></path>
                        <path d="M51.1171423,14.9058935 C50.456351,14.2309123 49.3847549,14.2309123 48.7237884,14.9058935 L48.5296853,15.104201 L48.3357574,14.9058935 C47.6747909,14.2309123 46.6031949,14.2309123 45.9424036,14.9058935 L45.8751332,14.9745653 C45.2141667,15.6495465 45.2141667,16.7439164 45.8751332,17.4188976 L46.0692362,17.6170298 L48.3215676,19.9175366 C48.436663,20.0349094 48.6228828,20.0349094 48.737803,19.9175366 L50.9903096,17.6170298 L51.1844126,17.4188976 C51.8453791,16.7439164 51.8453791,15.6495465 51.1844126,14.9745653 L51.1171423,14.9058935 Z" id="Fill-1-Copy-7" fill="#FFFFFF" opacity="0.5" mask="url(#mask-3)" transform="translate(48.529773, 17.202612) rotate(-30.000000) translate(-48.529773, -17.202612) "></path>
                        <path d="M4.31714226,25.7058935 C3.65635095,25.0309123 2.58475487,25.0309123 1.92378838,25.7058935 L1.72968532,25.904201 L1.53575743,25.7058935 C0.874790943,25.0309123 -0.19680514,25.0309123 -0.857596446,25.7058935 L-0.924866823,25.7745653 C-1.58583331,26.4495465 -1.58583331,27.5439164 -0.924866823,28.2188976 L-0.730763756,28.4170298 L1.52156759,30.7175366 C1.636663,30.8349094 1.82288282,30.8349094 1.93780304,30.7175366 L4.19030957,28.4170298 L4.38441264,28.2188976 C5.04537913,27.5439164 5.04537913,26.4495465 4.38441264,25.7745653 L4.31714226,25.7058935 Z" id="Fill-1-Copy-10" fill="#FFFFFF" opacity="0.5" mask="url(#mask-3)" transform="translate(1.729773, 28.002612) scale(-1, 1) rotate(-30.000000) translate(-1.729773, -28.002612) "></path>
                        <path d="M15.1171423,34.1058935 C14.456351,33.4309123 13.3847549,33.4309123 12.7237884,34.1058935 L12.5296853,34.304201 L12.3357574,34.1058935 C11.6747909,33.4309123 10.6031949,33.4309123 9.94240355,34.1058935 L9.87513318,34.1745653 C9.21416669,34.8495465 9.21416669,35.9439164 9.87513318,36.6188976 L10.0692362,36.8170298 L12.3215676,39.1175366 C12.436663,39.2349094 12.6228828,39.2349094 12.737803,39.1175366 L14.9903096,36.8170298 L15.1844126,36.6188976 C15.8453791,35.9439164 15.8453791,34.8495465 15.1844126,34.1745653 L15.1171423,34.1058935 Z" id="Fill-1-Copy-8" fill="#FFFFFF" opacity="0.5" mask="url(#mask-3)" transform="translate(12.529773, 36.402612) rotate(-30.000000) translate(-12.529773, -36.402612) "></path>
                        <path d="M39.2092294,8.62452661 C38.6574278,8.06087559 37.7625787,8.06087559 37.2106308,8.62452661 L37.0485427,8.79012562 L36.886601,8.62452661 C36.3346531,8.06087559 35.439804,8.06087559 34.8880024,8.62452661 L34.8318275,8.68187185 C34.2798796,9.24552288 34.2798796,10.1593895 34.8318275,10.7230405 L34.9939155,10.8884932 L36.8747516,12.8095587 C36.9708634,12.9075722 37.1263684,12.9075722 37.2223339,12.8095587 L39.1033162,10.8884932 L39.2654043,10.7230405 C39.8173522,10.1593895 39.8173522,9.24552288 39.2654043,8.68187185 L39.2092294,8.62452661 Z" id="Fill-1-Copy-6" fill="#FFFFFF" opacity="0.5" mask="url(#mask-3)" transform="translate(37.048616, 10.542429) rotate(30.000000) translate(-37.048616, -10.542429) "></path>
                        <path d="M18.8092294,1.42452661 C18.2574278,0.860875591 17.3625787,0.860875591 16.8106308,1.42452661 L16.6485427,1.59012562 L16.486601,1.42452661 C15.9346531,0.860875591 15.039804,0.860875591 14.4880024,1.42452661 L14.4318275,1.48187185 C13.8798796,2.04552288 13.8798796,2.95938946 14.4318275,3.52304048 L14.5939155,3.6884932 L16.4747516,5.60955866 C16.5708634,5.70757221 16.7263684,5.70757221 16.8223339,5.60955866 L18.7033162,3.6884932 L18.8654043,3.52304048 C19.4173522,2.95938946 19.4173522,2.04552288 18.8654043,1.48187185 L18.8092294,1.42452661 Z" id="Fill-1-Copy-9" fill="#FFFFFF" opacity="0.5" mask="url(#mask-3)" transform="translate(16.648616, 3.342429) rotate(30.000000) translate(-16.648616, -3.342429) "></path>
                        <path d="M42.8092294,25.4245266 C42.2574278,24.8608756 41.3625787,24.8608756 40.8106308,25.4245266 L40.6485427,25.5901256 L40.486601,25.4245266 C39.9346531,24.8608756 39.039804,24.8608756 38.4880024,25.4245266 L38.4318275,25.4818719 C37.8798796,26.0455229 37.8798796,26.9593895 38.4318275,27.5230405 L38.5939155,27.6884932 L40.4747516,29.6095587 C40.5708634,29.7075722 40.7263684,29.7075722 40.8223339,29.6095587 L42.7033162,27.6884932 L42.8654043,27.5230405 C43.4173522,26.9593895 43.4173522,26.0455229 42.8654043,25.4818719 L42.8092294,25.4245266 Z" id="Fill-1-Copy-11" fill="#FFFFFF" opacity="0.5" mask="url(#mask-3)" transform="translate(40.648616, 27.342429) rotate(30.000000) translate(-40.648616, -27.342429) "></path>
                        <g id="Group-40" mask="url(#mask-3)">
                            <g transform="translate(23.638008, 25.238969) rotate(-4.000000) translate(-23.638008, -25.238969) translate(10.438008, 13.838969)">
                                <path d="M23.2343544,3.96058501 L23.0028227,3.73094433 C20.7285056,1.47378733 17.0402773,1.47378733 14.7653574,3.73094433 L14.0972918,4.39409038 L13.4298292,3.73094433 C11.1549092,1.47378733 7.46668093,1.47378733 5.19236392,3.73094433 L4.96083217,3.96058501 C2.68591221,6.21774201 2.68591221,9.87734746 4.96083217,12.1345045 L5.62889772,12.7970647 L13.3809905,20.4900275 C13.7771268,20.8825256 14.4180597,20.8825256 14.8135931,20.4900275 L22.5662888,12.7970647 L23.2343544,12.1345045 C25.5092744,9.87734746 25.5092744,6.21774201 23.2343544,3.96058501" id="Fill-1-Copy-12" fill="#CE2D5B" transform="translate(14.097593, 11.411239) rotate(-2.000000) translate(-14.097593, -11.411239) "></path>
                                <path d="M21.4814381,3.86060073 L21.2499064,3.63096005 C18.9755894,1.37380305 15.2873611,1.37380305 13.0124411,3.63096005 L12.3443755,4.2941061 L11.6769129,3.63096005 C9.40199297,1.37380305 5.71376466,1.37380305 3.43944764,3.63096005 L3.2079159,3.86060073 C0.932995938,6.11775773 0.932995938,9.77736318 3.2079159,12.0345202 L3.87598145,12.6970804 L11.6280742,20.3900432 C12.0242106,20.7825413 12.6651435,20.7825413 13.0606769,20.3900432 L20.8133726,12.6970804 L21.4814381,12.0345202 C23.7563581,9.77736318 23.7563581,6.11775773 21.4814381,3.86060073" id="Fill-1-Copy-3" fill="#ED5C85" transform="translate(12.344677, 11.311255) rotate(-10.000000) translate(-12.344677, -11.311255) "></path>
                            </g>
                        </g>
                    </g>
                </g>
            </g>
        </g>
    </g>
</svg>