<?xml version="1.0" encoding="UTF-8"?>
<svg width="20px" height="20px" viewBox="0 0 20 20" version="1.1" xmlns="http://www.w3.org/2000/svg" xmlns:xlink="http://www.w3.org/1999/xlink">
    <!-- Generator: Sketch 52.1 (67048) - http://www.bohemiancoding.com/sketch -->
    <title>ic_history</title>
    <desc>Created with Sketch.</desc>
    <g id="📱-Mobile---ALCHEMY" stroke="none" stroke-width="1" fill="none" fill-rule="evenodd">
        <g id="01.00---Telkom---Blank" transform="translate(-322.000000, -42.000000)">
            <g id="ic_history" transform="translate(320.000000, 40.000000)">
                <polygon id="Fill-1" fill="#E9E9E9" opacity="0" points="0 24 24 24 24 0 0 0"></polygon>
                <g id="Group" transform="translate(2.000000, 2.000000)" fill="#364058">
                    <path d="M5,6 L11,6 C11.5522847,6 12,5.55228475 12,5 L12,5 C12,4.44771525 11.5522847,4 11,4 L5,4 C4.44771525,4 4,4.44771525 4,5 L4,5 C4,5.55228475 4.44771525,6 5,6 Z" id="Fill-2"></path>
                    <path d="M5,10 L11,10 C11.5522847,10 12,9.55228475 12,9 L12,9 C12,8.44771525 11.5522847,8 11,8 L5,8 C4.44771525,8 4,8.44771525 4,9 L4,9 C4,9.55228475 4.44771525,10 5,10 Z" id="Fill-3"></path>
                    <path d="M1.9512,16.0488 L1.9512,1.9508 L14.0492,1.9508 L14.0492,9.0828 C14.3592,9.0328 14.6762,8.9998 15.0002,8.9998 C15.3242,8.9998 15.6402,9.0328 15.9512,9.0828 L15.9512,0.0488 L0.0492,0.0488 L0.0492,17.9508 L9.7822,17.9508 C9.4522,17.3698 9.2192,16.7298 9.0972,16.0488 L1.9512,16.0488 Z" id="Fill-4"></path>
                    <path d="M5,14 L9.09,14 C9.212,13.282 9.459,12.608 9.812,12 L5,12 C4.44771525,12 4,12.4477153 4,13 L4,13 C4,13.5522847 4.44771525,14 5,14 Z" id="Fill-6"></path>
                    <path d="M15.793,16.5 L14.5005,15.2075 L14.5005,12.4995 C14.5005,12.2233576 14.7243576,11.9995 15.0005,11.9995 L15.0005,11.9995 C15.2766424,11.9995 15.5005,12.2233576 15.5005,12.4995 L15.5005,14.7925 L16.5001306,15.7928694 C16.6953122,15.9881953 16.6952538,16.3047462 16.5,16.5 L16.5,16.5 C16.3047673,16.6952327 15.9882327,16.6952327 15.793,16.5 Z M10.0005,14.9995 C10.0005,17.7615 12.2385,19.9995 15.0005,19.9995 C17.7615,19.9995 20.0005,17.7615 20.0005,14.9995 C20.0005,12.2385 17.7615,9.9995 15.0005,9.9995 C12.2385,9.9995 10.0005,12.2385 10.0005,14.9995 Z" id="Fill-8"></path>
                </g>
            </g>
        </g>
    </g>
</svg>