<?xml version="1.0" encoding="UTF-8"?>
<svg width="117px" height="106px" viewBox="0 0 117 106" version="1.1" xmlns="http://www.w3.org/2000/svg" xmlns:xlink="http://www.w3.org/1999/xlink">
    <!-- Generator: Sketch 52.1 (67048) - http://www.bohemiancoding.com/sketch -->
    <title>Illustration Mas Zaky</title>
    <desc>Created with Sketch.</desc>
    <defs>
        <linearGradient x1="78.9066726%" y1="-17.8573353%" x2="76.0831444%" y2="94.0619843%" id="linearGradient-1">
            <stop stop-color="#413979" offset="0%"></stop>
            <stop stop-color="#342E61" offset="100%"></stop>
        </linearGradient>
        <path d="M0,37.1705644 C2.00275282,29.1915873 6.16941949,22.4927145 12.5,17.073946 C18.8305805,11.6551775 28.1639138,6.79849476 40.5,2.50389773 L62.5,0 C81.0704237,12.2421087 92.2370903,20.4455013 96,24.6101779 C99.7629097,28.7748545 100.096243,33.2993202 97,38.1835749 L0,37.1705644 Z" id="path-2"></path>
        <linearGradient x1="61.6640255%" y1="20.3065024%" x2="43.7209595%" y2="96.1709111%" id="linearGradient-4">
            <stop stop-color="#39326A" offset="0%"></stop>
            <stop stop-color="#211C3C" offset="100%"></stop>
        </linearGradient>
        <linearGradient x1="50%" y1="0%" x2="50%" y2="100%" id="linearGradient-5">
            <stop stop-color="#FA5C5C" offset="0%"></stop>
            <stop stop-color="#ED4260" offset="100%"></stop>
        </linearGradient>
        <linearGradient x1="50%" y1="0%" x2="50%" y2="100%" id="linearGradient-6">
            <stop stop-color="#DD8775" offset="0%"></stop>
            <stop stop-color="#E49582" offset="100%"></stop>
        </linearGradient>
        <linearGradient x1="50%" y1="0%" x2="50%" y2="100%" id="linearGradient-7">
            <stop stop-color="#5B3930" offset="0%"></stop>
            <stop stop-color="#180C0A" offset="100%"></stop>
        </linearGradient>
        <linearGradient x1="78.1081607%" y1="9.86360651%" x2="43.9677329%" y2="93.4340892%" id="linearGradient-8">
            <stop stop-color="#F6D2CC" offset="0%"></stop>
            <stop stop-color="#E8A092" offset="100%"></stop>
        </linearGradient>
        <linearGradient x1="50%" y1="0%" x2="50%" y2="100%" id="linearGradient-9">
            <stop stop-color="#C37464" offset="0%"></stop>
            <stop stop-color="#5C3F3E" offset="100%"></stop>
        </linearGradient>
        <linearGradient x1="50%" y1="0%" x2="50%" y2="100%" id="linearGradient-10">
            <stop stop-color="#ECA692" offset="0%"></stop>
            <stop stop-color="#E89685" offset="100%"></stop>
        </linearGradient>
        <linearGradient x1="50%" y1="0%" x2="27.8327595%" y2="88.538541%" id="linearGradient-11">
            <stop stop-color="#894E44" offset="0%"></stop>
            <stop stop-color="#452822" offset="100%"></stop>
        </linearGradient>
        <linearGradient x1="30.497384%" y1="116.971326%" x2="86.7603624%" y2="12.6053028%" id="linearGradient-12">
            <stop stop-color="#3A231D" offset="0%"></stop>
            <stop stop-color="#562E28" offset="100%"></stop>
        </linearGradient>
        <path d="M3,4.52173913 C3.86311321,2.82634956 10.6738622,4.11912003 16,3.51690821 C20.1188994,3.05119554 23.9182132,0.331532407 25,2.51207729 C27.4806425,7.51227896 21,13.5652174 15,14.5700483 C9,15.5748792 1.46940941,7.52823616 3,4.52173913 Z" id="path-13"></path>
        <linearGradient x1="112.242721%" y1="50%" x2="50%" y2="50%" id="linearGradient-15">
            <stop stop-color="#EF5389" offset="0%"></stop>
            <stop stop-color="#DA2951" offset="100%"></stop>
        </linearGradient>
        <linearGradient x1="50%" y1="0%" x2="50%" y2="100%" id="linearGradient-16">
            <stop stop-color="#FAE5E0" offset="0%"></stop>
            <stop stop-color="#F3C6BE" offset="100%"></stop>
        </linearGradient>
    </defs>
    <g id="📱-Mobile---ALCHEMY" stroke="none" stroke-width="1" fill="none" fill-rule="evenodd">
        <g id="01.00---Telkom---Blank" transform="translate(-202.000000, -91.000000)">
            <g id="Banner" transform="translate(0.000000, 80.000000)">
                <g id="Illustration-Mas-Zaky" transform="translate(202.000000, 8.000000)">
                    <g id="Group-2">
                        <g>
                            <g id="Mas-Zaky" transform="translate(67.000000, 52.500000) scale(-1, 1) translate(-67.000000, -52.500000) translate(17.000000, 0.000000)">
                                <g id="Group-12" transform="translate(0.000000, 65.816425)">
                                    <mask id="mask-3" fill="white">
                                        <use xlink:href="#path-2"></use>
                                    </mask>
                                    <use id="Path-18" fill="url(#linearGradient-1)" xlink:href="#path-2"></use>
                                    <polygon id="Path-18" fill="url(#linearGradient-4)" mask="url(#mask-3)" points="-8.5 40.5559557 6.77777778 15.2829356 35.8476537 -0.502415459 41 41.1980676"></polygon>
                                    <path d="M68.6977785,1.50724638 C73.0227049,12.7480821 75.8909638,21.6240886 77.3025554,28.1352657 C78.7141469,34.6464428 78.7141469,39.0007101 77.3025554,41.1980676 L40.3275117,41.1980676 C40.4215373,38.1055832 40.2343335,33.2489005 39.7659001,26.6280193 C39.2974668,20.0071382 36.9703147,11.6335472 32.7844439,1.50724638 L68.6977785,1.50724638 Z" id="Path-19" fill="url(#linearGradient-5)" mask="url(#mask-3)"></path>
                                    <path d="M31.5,3.01449275 C39.8190191,11.2961747 47.4049654,15.3154983 54.2578391,15.0724638 C61.1107127,14.8294292 67.691433,10.3076901 74,1.50724638 L31.5,3.01449275 Z" id="Path-20" fill="#A73948" mask="url(#mask-3)"></path>
                                </g>
                                <path d="M38,51.7487923 C38.3950105,53.4826316 38.7376328,55.3798629 39.0278669,57.440486 C39.318101,59.5011091 39.808812,63.5204328 40.5,69.498457 C46.2322481,74.8575553 51.8319768,76.8672171 57.2991861,75.5274425 C62.7663954,74.187668 65.5,70.6707598 65.5,64.9767179 L38,51.7487923 Z" id="Path-17" fill="url(#linearGradient-6)"></path>
                                <g id="Kepala" transform="translate(13.000000, 0.000000)">
                                    <path d="M11.3892446,14.7173826 C5.81770898,19.7362033 -1.00643027,26.2610161 5.97652661,30.7878647 C12.9594835,35.3147133 13.433605,27.5941369 16.574151,24.2661688 C18.6678484,22.0475234 19.872132,19.2019119 20.187002,15.7293343 C18.0361874,11.7088194 15.1036016,11.3715022 11.3892446,14.7173826 Z" id="Path-9" fill="url(#linearGradient-7)" transform="translate(11.599967, 22.306256) rotate(10.000000) translate(-11.599967, -22.306256) "></path>
                                    <path d="M17.027377,17.0308618 C14.2405172,15.7308788 12.2003529,15.2268513 10.9068841,15.5187794 C4.2539291,17.0203108 1.66658777,14.587097 1.123104,10.487275 C0.470884785,5.56719671 6.13098119,2.87296193 11.5528707,3.96544045 C15.5428282,4.7693932 19.2640644,8.80182575 20.9584941,9.49897475 C23.6231361,10.5953038 22.3127638,13.1059328 17.027377,17.0308618 Z" id="Path-8" fill="url(#linearGradient-7)" transform="translate(11.684896, 10.377504) rotate(10.000000) translate(-11.684896, -10.377504) "></path>
                                    <path d="M21.8515979,43.0771092 C24.9159149,46.9932652 22.9817186,49.1061501 24.4856547,53.6284729 C27.989056,57.1477628 47.010347,67.7126626 60.9979938,62.1984515 C74.9856406,56.6842404 70.4853333,45.1266506 69.4822962,41.6094261 C68.4792591,38.0922016 63.7798153,33.0307243 61.9704639,28.5423218 C60.1611125,24.0539193 61.9638548,20.5048398 59.4605992,16.9863761 C56.9573435,13.4679124 42.3815814,5.37554365 30.4501787,9.42727885 C18.5187761,13.479014 12.083788,31.0128261 12.0862664,34.0268818 C12.0879187,36.0362523 12.549992,37.8785557 13.4724864,39.553792 C17.0156827,39.2918995 19.8087199,40.4663386 21.8515979,43.0771092 Z" id="Path-4" fill="url(#linearGradient-8)" transform="translate(41.527405, 36.040338) rotate(10.000000) translate(-41.527405, -36.040338) "></path>
                                    <path d="M13.2196912,37.1466065 C14.3601135,39.1569176 25.3731686,48.5786134 27.4728981,47.2052255 C29.5726276,45.8318376 24.1576507,33.1540354 23.9591701,31.12737 C23.7606895,29.1007047 25.6585666,27.6123778 24.6571817,26.1045238 C23.9895918,25.0992878 22.6338435,21.4143245 20.5899369,15.049634 C17.4109917,16.3865875 15.0793838,18.896373 13.5951132,22.5789904 C11.3687072,28.1029164 12.0792689,35.1362953 13.2196912,37.1466065 Z" id="Path-6" fill="url(#linearGradient-9)" transform="translate(20.048799, 31.195507) rotate(10.000000) translate(-20.048799, -31.195507) "></path>
                                    <path d="M12.6938032,35.4611876 C8.27670342,37.4669081 9.03995206,43.495646 12.4941311,46.5125529 C15.9483102,49.5294598 21.4096006,50.6713238 23.4349313,49.0333016 C25.4602621,47.3952793 23.7564828,41.7257373 21.8014333,38.9851066 C19.8463837,36.2444759 17.110903,33.4554671 12.6938032,35.4611876 Z" id="Path-5" fill="url(#linearGradient-10)" transform="translate(16.993052, 42.280383) rotate(10.000000) translate(-16.993052, -42.280383) "></path>
                                    <path d="M14.6901923,38.6415252 C16.5378821,26.9990969 19.2782166,20.1360159 22.9111959,18.0522823 C26.5648518,15.9566895 28.3101955,10.8330893 34.4115681,9.01962069 C45.5630882,5.70513187 59.0720769,14.2561093 59.0708377,12.7490814 C59.0695985,11.2420536 48.0576695,-1.32559952 29.0610978,6.19384326 C16.3967166,11.2068051 11.6064148,22.0226991 14.6901923,38.6415252 Z" id="Path-7" fill="url(#linearGradient-11)" transform="translate(36.427620, 21.227746) rotate(10.000000) translate(-36.427620, -21.227746) "></path>
                                    <path d="M55,21.1233031 C55,19.9668462 55.4937596,18.8668124 57,18.6174315 C57.9998313,18.4518943 59.2569506,19.064368 60.5,19.2645146 C61.5960194,19.4409876 62.6868011,19.1646798 63.5,19.6222624 C64.6004724,20.2414923 65.1302216,21.2137953 65,22.128134 C64.5,25.6388365 55,24.6402113 55,21.1233031 Z" id="Path-11" fill="url(#linearGradient-12)"></path>
                                    <g id="Kaca-Mata" transform="translate(33.500000, 24.115942)">
                                        <path d="M20.5,8.62930818 C21.6893118,8.07708141 22.6059784,7.74213777 23.25,7.62447726 C23.8940216,7.50681676 24.8106882,7.50681676 26,7.62447726" id="Path-13" stroke="#21173C" stroke-width="2.5"></path>
                                        <path d="M1.28118314,7.99269351 C0.806764723,14.6666376 5.55906365,19.5783304 12.3785486,18.7217768 C18.5881538,17.9418264 21.5085039,10.7524039 19.3589291,4.81251591 C18.886444,3.50690491 16.7111281,3.45419818 10.5365034,4.48327009 C10.2819416,4.52568208 10.2819416,4.52568208 10.0265654,4.56803642 C9.8817827,4.59197508 9.8817827,4.59197508 9.73681989,4.61581159 C9.4818649,4.65766516 9.21648213,4.7000604 8.89990891,4.74973499 C8.70977554,4.77956946 8.48561593,4.81445925 8.07688847,4.87805462 C2.99994117,5.66989584 1.39766734,6.35403659 1.28118314,7.99269351 Z" id="Path-10" stroke="#21173C" stroke-width="2.5" fill="#E6F1FF"></path>
                                        <path d="M26.2709586,4.53817306 C25.9573936,9.98620443 29.0020205,13.8726487 33.2148592,13.2191138 C37.0654935,12.6217675 38.9942245,6.75739365 37.5723244,1.90466856 C37.3263348,1.06514414 36.1026887,1.02852649 32.1807796,1.83580542 C32.0098592,1.87097608 32.0098592,1.87097608 31.8380421,1.9061706 C31.7405546,1.92607839 31.7405546,1.92607839 31.6428329,1.94592417 C31.4700728,1.9809512 31.2905926,2.01636332 31.0768249,2.05779123 C30.9488203,2.08259835 30.7979689,2.11159724 30.5242274,2.1642016 C27.2468899,2.79551869 26.3438492,3.27173798 26.2709586,4.53817306 Z" id="Path-10-Copy" stroke="#21173C" stroke-width="2.5" fill="#E6F1FF"></path>
                                        <ellipse id="Oval" fill="#5F6367" cx="9.5" cy="10.763285" rx="1.5" ry="2.76328502"></ellipse>
                                        <ellipse id="Oval-Copy" fill="#5F6367" cx="30.5" cy="7.76328502" rx="1.5" ry="2.76328502"></ellipse>
                                    </g>
                                    <path d="M31.5548627,23.5756812 C31.553644,22.4195057 32.2188893,21.320445 34.2515294,21.0732768 C35.6007809,20.9092083 37.2981019,21.5233292 38.975999,21.7252031 C40.4554316,21.9031991 41.9273179,21.628517 43.025337,22.0871501 C44.5112461,22.7078017 45.2272486,23.680625 45.0524581,24.5945552 C44.3813307,28.1036893 31.5585687,27.0917338 31.5548627,23.5756812 Z" id="Path-11-Copy" fill="url(#linearGradient-12)" transform="translate(38.316579, 23.909799) scale(-1, 1) rotate(13.000000) translate(-38.316579, -23.909799) "></path>
                                    <g id="MULUT" transform="translate(41.000000, 44.212560)">
                                        <mask id="mask-14" fill="white">
                                            <use xlink:href="#path-13"></use>
                                        </mask>
                                        <use id="Path-14" fill="#282533" xlink:href="#path-13"></use>
                                        <path d="M20.7408568,1.67589856 L20.7408568,7.53623188 C10.3597535,8.1740033 3.94613451,7.90732251 1.5,6.73618951 C-0.946134508,5.56505651 0.220532158,3.31966001 5,8.8817842e-15 L20.7408568,1.67589856 Z" id="Path-15" fill="#FFFFFF" mask="url(#mask-14)"></path>
                                        <path d="M7.5,13.5652174 C11.3196601,11.4951519 13.8196601,10.6577928 15,11.0531401 C16.1803399,11.4484874 16.1803399,13.1232056 15,16.0772947 L7.5,13.5652174 Z" id="Path-16" fill="url(#linearGradient-15)" mask="url(#mask-14)"></path>
                                    </g>
                                </g>
                            </g>
                            <path d="M1.14281911,105.733354 C-0.662314739,102.824547 -0.328981406,100.485787 2.14281911,98.7170732 C5.85051987,96.0640023 11.4939313,95 16.1428191,95 C20.7917069,95 21.499072,96.1559651 24.1428191,99.7170732 C25.9053172,102.091145 25.9053172,104.110768 24.1428191,105.775942 L1.14281911,105.733354 Z" id="Path-21" fill="url(#linearGradient-16)"></path>
                            <path d="M73.1428191,105.733354 C71.3376853,102.824547 71.6710186,100.485787 74.1428191,98.7170732 C77.8505199,96.0640023 83.4939313,95 88.1428191,95 C92.7917069,95 93.499072,96.1559651 96.1428191,99.7170732 C97.9053172,102.091145 97.9053172,104.110768 96.1428191,105.775942 L73.1428191,105.733354 Z" id="Path-21-Copy" fill="url(#linearGradient-16)" transform="translate(84.732346, 100.387971) scale(-1, 1) translate(-84.732346, -100.387971) "></path>
                        </g>
                        <path d="M22.1416514,107.996005 L40.058312,107.996005" id="Path-8" stroke="#FFFFFF" stroke-width="2"></path>
                    </g>
                </g>
            </g>
        </g>
    </g>
</svg>