<?xml version="1.0" encoding="UTF-8"?>
<svg width="40px" height="40px" viewBox="0 0 40 40" version="1.1" xmlns="http://www.w3.org/2000/svg" xmlns:xlink="http://www.w3.org/1999/xlink">
    <!-- Generator: Sketch 52.1 (67048) - http://www.bohemiancoding.com/sketch -->
    <title>ic_Dope</title>
    <desc>Created with Sketch.</desc>
    <defs>
        <linearGradient x1="9.96110477%" y1="89.390006%" x2="87.2106176%" y2="12.3401376%" id="linearGradient-1">
            <stop stop-color="#A7E0F3" offset="0%"></stop>
            <stop stop-color="#4589DC" offset="100%"></stop>
        </linearGradient>
    </defs>
    <g id="📱-Mobile---ALCHEMY" stroke="none" stroke-width="1" fill="none" fill-rule="evenodd">
        <g id="Homepage" transform="translate(-282.000000, -618.000000)">
            <g id="ic_Dope" transform="translate(282.000000, 618.000000)">
                <rect id="Rectangle-2-Copy-17" fill="url(#linearGradient-1)" transform="translate(20.000000, 20.000000) rotate(-180.000000) translate(-20.000000, -20.000000) " x="0" y="0" width="40" height="40" rx="16"></rect>
                <g id="ic_angsurankredit1" transform="translate(8.000000, 8.000000)">
                    <polygon id="Path" fill="#E4E4E3" opacity="0" points="0 24 24 24 24 0 0 0"></polygon>
                    <polygon id="Fill-19" fill="#FFFFFF" opacity="0.5" points="2 22 19 22 19 13 2 13"></polygon>
                    <path d="M20.3535,5.3535 L18.3535,7.3535 C18.256,7.451 18.128,7.5 18,7.5 C17.872,7.5 17.744,7.451 17.6465,7.3535 L16.6465,6.3535 C16.451,6.158 16.451,5.842 16.6465,5.6465 C16.842,5.451 17.158,5.451 17.3535,5.6465 L18,6.293 L19.6465,4.6465 C19.842,4.451 20.158,4.451 20.3535,4.6465 C20.549,4.842 20.549,5.158 20.3535,5.3535 Z M20.3535,9.3535 L18.3535,11.3535 C18.256,11.451 18.128,11.5 18,11.5 C17.872,11.5 17.744,11.451 17.6465,11.3535 L16.6465,10.3535 C16.451,10.158 16.451,9.842 16.6465,9.6465 C16.842,9.451 17.158,9.451 17.3535,9.6465 L18,10.293 L19.6465,8.6465 C19.842,8.451 20.158,8.451 20.3535,8.6465 C20.549,8.842 20.549,9.158 20.3535,9.3535 Z M9,7 L15,7 L15,6 L9,6 L9,7 Z M9,11 L15,11 L15,10 L9,10 L9,11 Z M7,2 L7,13 L19,13 L19,20 L22,20 L22,2 L7,2 Z" id="Fill-21" fill="#FFFFFF"></path>
                    <polygon id="Fill-22" fill="#FFFFFF" points="3 15 6 15 6 14 3 14"></polygon>
                    <path d="M10.5,20.5 C8.8435,20.5 7.5,19.1565 7.5,17.5 C7.5,15.8435 8.8435,14.5 10.5,14.5 C12.1565,14.5 13.5,15.8435 13.5,17.5 C13.5,19.1565 12.1565,20.5 10.5,20.5" id="Fill-23" fill="#FFFFFF"></path>
                    <polygon id="Fill-24" fill="#FFFFFF" points="15 21 18 21 18 20 15 20"></polygon>
                </g>
            </g>
        </g>
    </g>
</svg>