<?xml version="1.0" encoding="UTF-8"?>
<svg width="40px" height="40px" viewBox="0 0 40 40" version="1.1" xmlns="http://www.w3.org/2000/svg" xmlns:xlink="http://www.w3.org/1999/xlink">
    <!-- Generator: Sketch 52.1 (67048) - http://www.bohemiancoding.com/sketch -->
    <title>Group 36</title>
    <desc>Created with Sketch.</desc>
    <defs>
        <linearGradient x1="85.9549907%" y1="18.2690065%" x2="13.9225746%" y2="80.990555%" id="linearGradient-1">
            <stop stop-color="#6793CC" offset="0%"></stop>
            <stop stop-color="#6763AC" offset="100%"></stop>
        </linearGradient>
    </defs>
    <g id="📱-Mobile---ALCHEMY" stroke="none" stroke-width="1" fill="none" fill-rule="evenodd">
        <g id="Homepage" transform="translate(-200.000000, -618.000000)">
            <g id="VP-Copy-7" transform="translate(27.000000, 618.000000)">
                <g id="Group-36" transform="translate(173.000000, 0.000000)">
                    <rect id="Rectangle-2-Copy-7" fill="url(#linearGradient-1)" x="0" y="0" width="40" height="40" rx="16"></rect>
                    <g id="Group" transform="translate(8.000000, 8.000000)">
                        <polygon id="Fill-1" fill="#E6E6E6" opacity="0" points="0 24 24 24 24 0 0 0"></polygon>
                        <path d="M16.5764745,8.60020555 L9.62097449,6.12270555 L6.98397449,5.07370555 C6.69447449,4.95870555 6.38547449,4.97920555 6.14797449,5.12870555 L5.37797449,5.61220555 C4.85547449,5.94070555 4.87847449,6.73120555 5.42347449,7.16820555 L13.0764745,13.1002056 L16.5764745,8.60020555 Z" id="Fill-16" fill-opacity="0.5" fill="#FFFFFF"></path>
                        <path d="M18.135,19.522 C18.5725,20.067 19.363,20.0905 19.691,19.568 L20.175,18.798 C20.324,18.56 20.3445,18.2505 20.229,17.9615 L19.1805,15.324 L17.001,10 L13,13.2605 L18.135,19.522 Z" id="Fill-18" fill-opacity="0.5" fill="#FFFFFF"></path>
                        <path d="M19.9015622,9.8687447 C21.8365622,8.1507485 21.1580622,5.17643985 21.1580622,5.17643985 C21.1580622,5.17643985 17.6085622,4.39690463 15.6735622,6.11490082 C13.1200622,8.3820343 6.25806216,15.841778 6.25806216,15.841778 L4.16056216,15.841778 C3.51406216,15.8861706 2.67256216,16.6532759 3.13106216,17.0608006 L4.96956216,18.3122299 L7.07556216,16.4419668 C7.27056216,16.2683915 7.58706216,16.2683915 7.78256216,16.4419668 C7.97756216,16.6150982 7.97756216,16.8961038 7.78256216,17.0696791 L5.60956216,18.9994283 L6.60106216,20.7174245 C7.06006216,21.1245053 8.26756216,20.3773767 8.31756216,19.8033795 L8.28406216,18.1919257 C8.28406216,18.1919257 19.4810622,10.242087 19.9015622,9.8687447" id="Fill-14" fill="#FFFFFF"></path>
                    </g>
                </g>
            </g>
        </g>
    </g>
</svg>