<?xml version="1.0" encoding="UTF-8"?>
<svg width="48px" height="48px" viewBox="0 0 48 48" version="1.1" xmlns="http://www.w3.org/2000/svg" xmlns:xlink="http://www.w3.org/1999/xlink">
    <!-- Generator: Sketch 52.1 (67048) - http://www.bohemiancoding.com/sketch -->
    <title>Flash deal emblem Copy 7</title>
    <desc>Created with Sketch.</desc>
    <defs>
        <linearGradient x1="20.4036458%" y1="85.0032552%" x2="85.9549907%" y2="18.2690065%" id="linearGradient-1">
            <stop stop-color="#A993DA" offset="0%"></stop>
            <stop stop-color="#C996BA" offset="100%"></stop>
        </linearGradient>
        <path d="M48,24 C48,37.2552 37.2552,48 24,48 C10.7448,48 0,37.2552 0,24 C0,10.7448 10.7448,0 24,0 C37.2552,0 48,10.7448 48,24" id="path-2"></path>
        <linearGradient x1="100%" y1="11.976093%" x2="-25.5863938%" y2="142.840908%" id="linearGradient-4">
            <stop stop-color="#FF8690" offset="0%"></stop>
            <stop stop-color="#BE142D" offset="100%"></stop>
        </linearGradient>
        <linearGradient x1="80.1746265%" y1="84.6618014%" x2="19.3981269%" y2="14.8631723%" id="linearGradient-5">
            <stop stop-color="#FFFFFF" offset="0%"></stop>
            <stop stop-color="#F0C9CE" offset="100%"></stop>
        </linearGradient>
    </defs>
    <g id="📱-Mobile---ALCHEMY" stroke="none" stroke-width="1" fill="none" fill-rule="evenodd">
        <g id="Homepage" transform="translate(-202.000000, -242.000000)">
            <g id="Group-2" transform="translate(8.000000, 242.000000)">
                <g id="Group-30" transform="translate(180.000000, 0.000000)">
                    <g id="Flash-deal-emblem-Copy-7" transform="translate(14.000000, 0.000000)">
                        <mask id="mask-3" fill="white">
                            <use xlink:href="#path-2"></use>
                        </mask>
                        <use id="Fill-1" fill="url(#linearGradient-1)" xlink:href="#path-2"></use>
                        <polygon id="Path-2" fill="#FFFFFF" opacity="0.3" mask="url(#mask-3)" points="22.8 34.0781765 17.4 -4.8 30 -4.8 25.2 34.0781765"></polygon>
                        <polygon id="Path-3" fill="#FFFFFF" opacity="0.3" mask="url(#mask-3)" points="27.6 34.5101562 36 0.383756868 42.6 4.27157452 30 34.5101562"></polygon>
                        <polygon id="Path-3-Copy" fill="#FFFFFF" opacity="0.3" mask="url(#mask-3)" transform="translate(12.300000, 17.446957) scale(-1, 1) translate(-12.300000, -17.446957) " points="4.8 34.5101562 13.2 0.383756868 19.8 4.27157452 7.2 34.5101562"></polygon>
                        <g id="Group-52" mask="url(#mask-3)">
                            <g transform="translate(11.250000, 10.500000)">
                                <path d="M15.2728377,2.52860054 C16.0126975,3.44326467 17.2214492,3.83526359 18.3583356,3.53037554 C20.1867788,3.03949402 22.0034408,4.3579288 22.1012248,6.24729293 C22.161309,7.42093533 22.9094156,8.44978533 24.007424,8.87003641 C25.775783,9.54573424 26.4696961,11.6799505 25.4376624,13.2656038 C24.7955867,14.2508984 24.7955867,15.5222462 25.4376624,16.5075408 C26.4696961,18.093194 25.775783,20.2274103 24.007424,20.9031082 C22.9094156,21.3245364 22.161309,22.3522092 22.1012248,23.5258516 C22.0034408,25.4152158 20.1867788,26.7348277 18.3583356,26.242769 C17.2214492,25.937881 16.0126975,26.3298799 15.2728377,27.244544 C14.0829359,28.7160114 11.837438,28.7160114 10.6463581,27.244544 C9.9064983,26.3298799 8.69774655,25.937881 7.56086016,26.242769 C5.73241696,26.7348277 3.91575497,25.4152158 3.81914908,23.5258516 C3.7578868,22.3522092 3.01095833,21.3245364 1.9117718,20.9031082 C0.143412751,20.2274103 -0.550500293,18.093194 0.482711488,16.5075408 C1.1236091,15.5222462 1.1236091,14.2508984 0.482711488,13.2656038 C-0.550500293,11.6799505 0.143412751,9.54573424 1.9117718,8.87003641 C3.01095833,8.44978533 3.7578868,7.42093533 3.81914908,6.24729293 C3.91575497,4.3579288 5.73241696,3.03949402 7.56086016,3.53037554 C8.69774655,3.83526359 9.9064983,3.44326467 10.6463581,2.52860054 C11.837438,1.05713315 14.0829359,1.05713315 15.2728377,2.52860054" id="Fill-1" fill="#B53C4B"></path>
                                <path d="M15.2728377,1.10360054 C16.0126975,2.01826467 17.2214492,2.41026359 18.3583356,2.10537554 C20.1867788,1.61449402 22.0034408,2.9329288 22.1012248,4.82229293 C22.161309,5.99593533 22.9094156,7.02478533 24.007424,7.44503641 C25.775783,8.12073424 26.4696961,10.2549505 25.4376624,11.8406038 C24.7955867,12.8258984 24.7955867,14.0972462 25.4376624,15.0825408 C26.4696961,16.668194 25.775783,18.8024103 24.007424,19.4781082 C22.9094156,19.8995364 22.161309,20.9272092 22.1012248,22.1008516 C22.0034408,23.9902158 20.1867788,25.3098277 18.3583356,24.817769 C17.2214492,24.512881 16.0126975,24.9048799 15.2728377,25.819544 C14.0829359,27.2910114 11.837438,27.2910114 10.6463581,25.819544 C9.9064983,24.9048799 8.69774655,24.512881 7.56086016,24.817769 C5.73241696,25.3098277 3.91575497,23.9902158 3.81914908,22.1008516 C3.7578868,20.9272092 3.01095833,19.8995364 1.9117718,19.4781082 C0.143412751,18.8024103 -0.550500293,16.668194 0.482711488,15.0825408 C1.1236091,14.0972462 1.1236091,12.8258984 0.482711488,11.8406038 C-0.550500293,10.2549505 0.143412751,8.12073424 1.9117718,7.44503641 C3.01095833,7.02478533 3.7578868,5.99593533 3.81914908,4.82229293 C3.91575497,2.9329288 5.73241696,1.61449402 7.56086016,2.10537554 C8.69774655,2.41026359 9.9064983,2.01826467 10.6463581,1.10360054 C11.837438,-0.367866848 14.0829359,-0.367866848 15.2728377,1.10360054" id="Fill-1" fill="url(#linearGradient-4)"></path>
                                <g id="Group" stroke-width="1" fill="none" transform="translate(5.559174, 7.063043)">
                                    <polygon id="Fill-4" fill="url(#linearGradient-5)" points="3.23529593 12.225422 1.56943338 10.560898 11.5657868 0.572577391 13.2316494 2.2371013"></polygon>
                                    <path d="M5.01496494,2.35434783 C5.01496494,3.655125 3.96054698,4.70869565 2.6587237,4.70869565 C1.35690042,4.70869565 0.302482468,3.655125 0.302482468,2.35434783 C0.302482468,1.05357065 1.35690042,0 2.6587237,0 C3.96054698,0 5.01496494,1.05357065 5.01496494,2.35434783" id="Fill-6" fill="url(#linearGradient-5)"></path>
                                    <path d="M14.4399299,10.5945652 C14.4399299,11.8953424 13.3855119,12.948913 12.0836886,12.948913 C10.7818654,12.948913 9.72744741,11.8953424 9.72744741,10.5945652 C9.72744741,9.29378804 10.7818654,8.24021739 12.0836886,8.24021739 C13.3855119,8.24021739 14.4399299,9.29378804 14.4399299,10.5945652" id="Fill-8" fill="url(#linearGradient-5)"></path>
                                </g>
                            </g>
                        </g>
                        <ellipse id="Oval-3" fill="#9F78AE" mask="url(#mask-3)" cx="24.375" cy="44.625" rx="16.875" ry="4.125"></ellipse>
                        <path d="M2.58099345,20.913308 L2.89552218,21.9256174 C2.9205492,22.0063566 2.99224822,22.060891 3.07319146,22.060891 L4.09095684,22.060891 C4.27200815,22.060891 4.34731467,22.3033448 4.20076006,22.4145383 L3.3775741,23.0403854 C3.31196273,23.0901982 3.28445556,23.1784919 3.30948258,23.2589951 L3.62401131,24.2713045 C3.67992753,24.4516693 3.48286795,24.6013438 3.33631335,24.4899142 L2.51312739,23.8643032 C2.44751602,23.8144904 2.35890685,23.8144904 2.29329548,23.8643032 L1.47010952,24.4899142 C1.32355491,24.6013438 1.12626986,24.4516693 1.18241155,24.2713045 L1.49671482,23.2589951 C1.52174184,23.1784919 1.49446013,23.0901982 1.42884876,23.0403854 L0.605662803,22.4145383 C0.459108196,22.3033448 0.534414717,22.060891 0.715466025,22.060891 L1.73323141,22.060891 C1.81417464,22.060891 1.88587367,22.0063566 1.91090069,21.9256174 L2.22542942,20.913308 C2.28134564,20.7331792 2.52507723,20.7331792 2.58099345,20.913308" id="Fill-4" fill="#F3DF31" mask="url(#mask-3)" transform="translate(2.403211, 22.653211) rotate(-20.000000) translate(-2.403211, -22.653211) "></path>
                        <path d="M45.3309934,23.163308 L45.6455222,24.1756174 C45.6705492,24.2563566 45.7422482,24.310891 45.8231915,24.310891 L46.8409568,24.310891 C47.0220081,24.310891 47.0973147,24.5533448 46.9507601,24.6645383 L46.1275741,25.2903854 C46.0619627,25.3401982 46.0344556,25.4284919 46.0594826,25.5089951 L46.3740113,26.5213045 C46.4299275,26.7016693 46.232868,26.8513438 46.0863133,26.7399142 L45.2631274,26.1143032 C45.197516,26.0644904 45.1089068,26.0644904 45.0432955,26.1143032 L44.2201095,26.7399142 C44.0735549,26.8513438 43.8762699,26.7016693 43.9324116,26.5213045 L44.2467148,25.5089951 C44.2717418,25.4284919 44.2444601,25.3401982 44.1788488,25.2903854 L43.3556628,24.6645383 C43.2091082,24.5533448 43.2844147,24.310891 43.465466,24.310891 L44.4832314,24.310891 C44.5641746,24.310891 44.6358737,24.2563566 44.6609007,24.1756174 L44.9754294,23.163308 C45.0313456,22.9831792 45.2750772,22.9831792 45.3309934,23.163308" id="Fill-4-Copy-2" fill="#F3DF31" mask="url(#mask-3)" transform="translate(45.153211, 24.903211) rotate(-20.000000) translate(-45.153211, -24.903211) "></path>
                        <g id="Group-6-Copy-3" mask="url(#mask-3)" fill="#F3DF31">
                            <g transform="translate(28.864496, 1.114496) scale(-1, 1) rotate(-20.000000) translate(-28.864496, -1.114496) translate(26.239496, -1.510504)" id="Fill-4">
                                <path d="M2.87389482,0.189135188 L3.31423505,1.60636836 C3.34927287,1.71940328 3.4496515,1.79575143 3.56297204,1.79575143 L4.98784357,1.79575143 C5.2413154,1.79575143 5.34674453,2.13518671 5.14156808,2.29085761 L3.98910774,3.16704351 C3.89725182,3.23678143 3.85874178,3.36039272 3.89377961,3.47309713 L4.33411983,4.89033031 C4.41240254,5.14284107 4.13651913,5.35238534 3.93134268,5.19638393 L2.77888234,4.32052854 C2.68702642,4.25079062 2.56297358,4.25079062 2.47111766,4.32052854 L1.31865732,5.19638393 C1.11348087,5.35238534 0.837281803,5.14284107 0.915880166,4.89033031 L1.35590474,3.47309713 C1.39094256,3.36039272 1.35274818,3.23678143 1.26089226,3.16704351 L0.108431919,2.29085761 C-0.096744532,2.13518671 0.00868459804,1.79575143 0.262156429,1.79575143 L1.68702796,1.79575143 C1.8003485,1.79575143 1.90072713,1.71940328 1.93576495,1.60636836 L2.37610518,0.189135188 C2.45438789,-0.0630450625 2.79561211,-0.0630450625 2.87389482,0.189135188"></path>
                            </g>
                        </g>
                        <g id="Group-6-Copy" mask="url(#mask-3)" fill="#F3DF31">
                            <g transform="translate(37.811298, 13.061298) rotate(30.000000) translate(-37.811298, -13.061298) translate(35.936298, 11.186298)" id="Fill-4">
                                <path d="M2.05278201,0.135096563 L2.36731075,1.14740597 C2.39233776,1.2281452 2.46403679,1.2826796 2.54498003,1.2826796 L3.56274541,1.2826796 C3.74379672,1.2826796 3.81910324,1.52513337 3.67254863,1.63632687 L2.84936267,2.26217394 C2.7837513,2.31198674 2.75624413,2.40028052 2.78127115,2.48078367 L3.09579988,3.49309308 C3.1517161,3.67345791 2.95465652,3.82313239 2.80810191,3.71170281 L1.98491596,3.08609181 C1.91930459,3.03627901 1.83069541,3.03627901 1.76508404,3.08609181 L0.941898087,3.71170281 C0.795343479,3.82313239 0.59805843,3.67345791 0.654200119,3.49309308 L0.968503385,2.48078367 C0.993530402,2.40028052 0.966248698,2.31198674 0.900637328,2.26217394 L0.0774513705,1.63632687 C-0.0691032371,1.52513337 0.00620328431,1.2826796 0.187254592,1.2826796 L1.20501997,1.2826796 C1.28596321,1.2826796 1.35766224,1.2281452 1.38268925,1.14740597 L1.69721799,0.135096563 C1.75313421,-0.0450321875 1.99686579,-0.0450321875 2.05278201,0.135096563"></path>
                            </g>
                        </g>
                        <g id="Group-6-Copy-2" mask="url(#mask-3)" fill="#F3DF31">
                            <g transform="translate(12.131157, 9.520805) rotate(50.000000) translate(-12.131157, -9.520805) translate(9.131157, 6.520805)" id="Fill-4">
                                <path d="M3.28445122,0.2161545 L3.7876972,1.83584956 C3.82774042,1.96503232 3.94245886,2.05228735 4.07196804,2.05228735 L5.70039265,2.05228735 C5.99007475,2.05228735 6.11056518,2.44021338 5.87607781,2.61812299 L4.55898028,3.6194783 C4.45400208,3.69917878 4.40999061,3.84044883 4.45003383,3.96925387 L4.95327981,5.58894892 C5.04274576,5.87753265 4.72745043,6.11701182 4.49296306,5.93872449 L3.17586553,4.9377469 C3.07088734,4.85804642 2.92911266,4.85804642 2.82413447,4.9377469 L1.50703694,5.93872449 C1.27254957,6.11701182 0.956893489,5.87753265 1.04672019,5.58894892 L1.54960542,3.96925387 C1.58964864,3.84044883 1.54599792,3.69917878 1.44101972,3.6194783 L0.123922193,2.61812299 C-0.110565179,2.44021338 0.0099252549,2.05228735 0.299607347,2.05228735 L1.92803196,2.05228735 C2.05754114,2.05228735 2.17225958,1.96503232 2.2123028,1.83584956 L2.71554878,0.2161545 C2.80501473,-0.0720515 3.19498527,-0.0720515 3.28445122,0.2161545"></path>
                            </g>
                        </g>
                    </g>
                </g>
            </g>
        </g>
    </g>
</svg>